<svg viewBox="0 0 80 80" xmlns="http://www.w3.org/2000/svg" class=""><g fill="none" fill-rule="evenodd"><ellipse fill="#FFF" cx="39.969" cy="40.284" rx="32.315" ry="32.34"/><path d="M39.969 80c22.074 0 39.968-17.909 39.968-40S62.043 0 39.969 0C17.895 0 0 17.909 0 40s17.895 40 39.969 40zm-8.491-56.236l1.23-1.234 10.465 10.488-2.462 2.468-10.464-10.488 1.23-1.234zm6.771 21.593l1.231-1.233 10.465 10.488-2.462 2.468L37.018 46.59l1.231-1.234zm-14.158-14.19l1.23-1.234 10.466 10.489-2.463 2.468L22.86 32.4l1.23-1.234zM38.864 16.36l1.231-1.234 24.623 24.679-2.462 2.468-24.623-24.679 1.231-1.234zm-22.16 22.21c.77-.654 1.348-1.233 1.231-1.233l24.623 24.679-2.463 2.467-24.622-24.678c0 .117.578-.463 1.231-1.234z" fill="#E30"/></g></svg>